<svg xmlns="http://www.w3.org/2000/svg" viewBox="0 0 20 20"><circle cx="10" cy="10" r="10" style="fill:#f8f6f5"/><path d="M13.347,2.908H3.482a.706.706,0,0,0-.7.705h0V16.649a.706.706,0,0,0,.705.7h9.865a.706.706,0,0,0,.705-.7h0V3.613a.705.705,0,0,0-.7-.7Z" style="fill:#43b649"/><path d="M10,5.022H6.831A.623.623,0,0,1,6.208,4.4h0V2.908h4.414V4.4A.624.624,0,0,1,10,5.022Z" style="fill:#ff7480"/><path d="M12.833,14.329H11.615a.587.587,0,0,0-.587.587h0v1.218" style="fill:#ff7480"/><path d="M6.114,4.082H4.539a.587.587,0,0,0-.587.587h0V15.592a.587.587,0,0,0,.587.587h6.489l1.85-1.85V4.669a.589.589,0,0,0-.588-.587H10.714" style="fill:#f8f8f8"/><path d="M12.833,14.329H11.615a.587.587,0,0,0-.587.587h0v1.218" style="fill:#ffd89b"/><path d="M15.579,14.272V4.343a.822.822,0,0,1,.822-.822h0a.822.822,0,0,1,.822.822h0v9.929L16.4,16.74Z" style="fill:#ffcb78"/><path d="M17.223,14.272H15.579L16.4,16.74Z" style="fill:#afabb0"/><path d="M17.223,4.908V4.343a.822.822,0,0,0-.822-.822h0a.822.822,0,0,0-.822.822h0v.565Z" style="fill:#f8f8f8"/><path d="M10,5.022H6.831A.623.623,0,0,1,6.208,4.4h0V2.908h4.414V4.4A.624.624,0,0,1,10,5.022Z" style="fill:#ed6725"/><path d="M16.4,3.228a1.116,1.116,0,0,0-1.116,1.115v9.929a.292.292,0,0,0,.015.093l.822,2.468a.293.293,0,0,0,.557,0l.822-2.468a.292.292,0,0,0,.015-.093V11.228a.294.294,0,0,0-.587,0h0v2.75H15.872V5.2H16.93V8.879a.294.294,0,0,0,.587,0V4.343A1.116,1.116,0,0,0,16.4,3.228Zm0,12.583-.415-1.246h.83Zm-.529-11.2V4.343a.529.529,0,0,1,1.057,0v.272Z" style="fill:#ed6725"/><path d="M17.223,9.76a.294.294,0,1,0,.207.086A.292.292,0,0,0,17.223,9.76Z" style="fill:#ed6725"/><path d="M13.347,2.614H3.482a1,1,0,0,0-1,1V16.649a1,1,0,0,0,1,1h9.865a1,1,0,0,0,1-1V3.613A1,1,0,0,0,13.347,2.614Zm-3.02.588V4.4a.332.332,0,0,1-.33.33H6.832A.331.331,0,0,1,6.5,4.4h0V3.2Zm3.431,13.447a.411.411,0,0,1-.411.411H3.482a.411.411,0,0,1-.411-.411V3.613A.411.411,0,0,1,3.48,3.2H5.914v.587H4.539a.882.882,0,0,0-.881.88V15.592a.882.882,0,0,0,.881.88H5.954a.294.294,0,0,0,0-.587H4.539a.294.294,0,0,1-.294-.293V4.67a.3.3,0,0,1,.294-.294H5.914V4.4a.92.92,0,0,0,.917.918H10a.919.919,0,0,0,.918-.918V4.376H12.29a.294.294,0,0,1,.293.294v9.366h-.969a.882.882,0,0,0-.88.881v.969H8.3a.294.294,0,0,0,0,.587h2.725a.292.292,0,0,0,.207-.086l1.85-1.85a.294.294,0,0,0,.086-.208V4.669a.882.882,0,0,0-.881-.88H10.915V3.2h2.432a.411.411,0,0,1,.411.411h0Zm-1.59-2.026-.848.847v-.553a.294.294,0,0,1,.294-.294Z" style="fill:#0f6f14"/><path d="M6.545,9.335l-.91.91-.272-.273a.294.294,0,0,0-.422.409l.006.007.48.48a.3.3,0,0,0,.416,0L6.96,9.751a.294.294,0,0,0-.412-.419h0Z" style="fill:#303b71"/><path d="M8.113,10.95H9.6a.294.294,0,1,0,.034-.587H8.113a.294.294,0,0,0,0,.587Z" style="fill:#303b71"/><path d="M8.113,9.775H11.1a.294.294,0,1,0,.034-.587.193.193,0,0,0-.034,0H8.113a.294.294,0,0,0,0,.587Z" style="fill:#303b71"/><path d="M6.961,12.066a.292.292,0,0,0-.414,0h0l-.91.909L5.363,12.7a.294.294,0,0,0-.416.416l.48.48a.3.3,0,0,0,.416,0L6.96,12.481a.3.3,0,0,0,0-.415Z" style="fill:#303b71"/><path d="M9.605,13.68a.294.294,0,0,0,0-.587H8.113a.294.294,0,0,0,0,.587Z" style="fill:#303b71"/><path d="M8.113,12.506H11.1a.294.294,0,1,0,.034-.587.193.193,0,0,0-.034,0H8.113a.294.294,0,0,0,0,.587Z" style="fill:#303b71"/><path d="M5.428,8.1a.3.3,0,0,0,.415,0h0L6.96,6.986a.293.293,0,0,0-.415-.415h0l-.909.909-.273-.273a.293.293,0,0,0-.415.415h0Z" style="fill:#303b71"/><path d="M8.113,8.185H9.6A.294.294,0,1,0,9.634,7.6H8.113a.294.294,0,0,0,0,.587Z" style="fill:#303b71"/><path d="M8.113,7.011H11.1a.294.294,0,1,0,.034-.587.193.193,0,0,0-.034,0H8.113a.294.294,0,0,0,0,.587Z" style="fill:#303b71"/><path d="M7.129,15.885a.294.294,0,1,0,.207.086A.292.292,0,0,0,7.129,15.885Z" style="fill:#0fa316"/></svg>