<svg width="60" height="58" viewBox="0 0 60 58" fill="none" xmlns="http://www.w3.org/2000/svg">
<g clip-path="url(#clip0_354_1647)">
<path d="M35.0201 36.3262C35.0201 35.2536 34.1367 34.4331 33.127 34.4331H12.9985C11.9259 34.4331 11.1055 35.3165 11.1055 36.3262C11.1055 37.3988 11.9888 38.2193 12.9985 38.2193H33.127C34.1367 38.2193 35.0201 37.3988 35.0201 36.3262Z" fill="#0F6F14"/>
<path d="M12.9985 28.5651H33.127C34.1996 28.5651 35.0201 27.6817 35.0201 26.672C35.0201 25.5994 34.1367 24.7789 33.127 24.7789H12.9985C11.9259 24.7789 11.1055 25.6623 11.1055 26.672C11.1055 27.6817 11.9888 28.5651 12.9985 28.5651Z" fill="#0F6F14"/>
<path d="M11.1055 46.0434C11.1055 47.116 11.9888 47.9365 12.9986 47.9365H29.4042L30.2876 44.0874L12.9985 44.087C11.9259 44.087 11.1055 44.9704 11.1055 46.0434L11.1055 46.0434Z" fill="#0F6F14"/>
<path d="M42.276 52.6056C42.276 53.2368 41.7711 53.8046 41.077 53.8046H4.98457C4.29047 53.8046 3.78559 53.2368 3.78559 52.6056L3.78603 5.28169C3.78603 4.65052 4.29087 4.0827 4.98501 4.0827H27.5743V13.8631C27.5743 16.6395 29.783 18.8477 32.5589 18.8477H42.2758V30.3316L46.1248 26.4826V18.2168C46.1248 16.8915 45.5571 15.6296 44.6104 14.6834L31.7383 1.74817C30.792 0.801869 29.5296 0.297012 28.2048 0.297012H4.98456C2.20811 0.297012 0 2.56856 0 5.28158V52.6686C0 55.3816 2.20868 57.6532 4.98456 57.6532H41.077C43.8534 57.6532 46.125 55.3816 46.125 52.6686V46.2958L42.2759 50.1448L42.276 52.6056ZM31.423 6.79605L39.6259 14.999L32.559 14.9985C31.8649 14.9985 31.36 14.4937 31.36 13.7996V6.79607L31.423 6.79605Z" fill="#43B649"/>
<path d="M33.8844 50.0186L38.7431 48.946C38.9323 48.883 39.1216 48.7567 39.3109 48.6304L40.699 47.2422L35.3354 41.8786L33.9473 43.2668C33.758 43.456 33.6317 43.6453 33.6317 43.8346L32.4961 48.6937C32.3069 49.4508 33.0644 50.2079 33.8843 50.0186L33.8844 50.0186Z" fill="#0F6F14"/>
<path d="M37.3535 39.8597L42.7171 45.2233L55.1475 32.7929L49.7839 27.3664L37.3535 39.8597Z" fill="#0F6F14"/>
<path d="M59.6287 26.6721L55.8425 22.886C55.4006 22.4441 54.707 22.4441 54.265 22.886L51.8672 25.2838L57.2308 30.6474L59.6287 28.3125C60.0706 27.871 60.0706 27.1139 59.6287 26.672V26.6721Z" fill="#0F6F14"/>
</g>
<defs>
<clipPath id="clip0_354_1647">
<rect width="60" height="57.4648" fill="white" transform="translate(0 0.267609)"/>
</clipPath>
</defs>
</svg>
