<svg width="60" height="60" viewBox="0 0 60 60" fill="none" xmlns="http://www.w3.org/2000/svg">
<g clip-path="url(#clip0_354_1613)">
<path d="M42.0625 34.615C37.9603 34.615 34.6094 37.9602 34.6094 42.0586C34.6094 46.1571 37.9603 49.5023 42.0625 49.5023C46.1646 49.5023 49.5249 46.1571 49.5249 42.0586C49.5249 37.9602 46.1646 34.615 42.0625 34.615ZM42.0625 37.1088C44.8197 37.1088 47.0311 39.3098 47.0311 42.0586C47.0311 44.808 44.8196 47.018 42.0625 47.018C39.3053 47.018 37.1026 44.808 37.1026 42.0586C37.1026 39.3093 39.3052 37.1088 42.0625 37.1088Z" fill="#0F6F14"/>
<path d="M29.5536 48.9616L6.42572 49.0717C4.62325 48.9334 4.64408 51.7214 6.4445 51.5561L28.5921 51.4549C29.958 50.4005 31.4641 49.0426 29.5531 48.9617L29.5536 48.9616Z" fill="#43B649"/>
<path d="M44.4095 0.0746632C43.4986 0.112226 42.6316 0.483158 41.9987 1.08676C41.3658 1.69037 40.9454 2.47454 40.6459 3.35935C40.0475 5.1295 39.8884 7.38112 39.9468 10.0574V10.058C39.9536 10.3887 40.0919 10.7033 40.3313 10.9323C40.5703 11.1614 40.8906 11.2861 41.2214 11.2788C41.5521 11.2715 41.8667 11.1327 42.0952 10.8938C42.3242 10.6543 42.4484 10.334 42.4406 10.0027C42.3853 7.46979 42.5856 5.41797 43.0113 4.16014C43.2236 3.53149 43.484 3.11517 43.7198 2.89032C43.9556 2.66546 44.1387 2.57312 44.5018 2.55903C44.8482 2.5726 45.1853 2.44113 45.431 2.19592C45.6762 1.95072 45.8087 1.61422 45.7956 1.26781C45.7831 0.920875 45.6261 0.595332 45.3632 0.368915C45.1002 0.142497 44.7548 0.0360668 44.41 0.0751987L44.4095 0.0746632Z" fill="#43B649"/>
<path d="M15.5633 0.0746617C14.8747 0.108051 14.3436 0.692879 14.3764 1.38153C14.4093 2.06965 14.9947 2.60127 15.6828 2.56841H44.4561C45.1447 2.56841 45.7029 2.01018 45.7029 1.32154C45.7029 0.632899 45.1447 0.0746754 44.4561 0.0746754H15.6828C15.6431 0.0731103 15.603 0.0731103 15.5633 0.0746754L15.5633 0.0746617Z" fill="#43B649"/>
<path d="M44.3363 0.0746686C43.6837 0.148751 43.2001 0.716886 43.2319 1.37319C43.2632 2.0295 43.799 2.54807 44.4563 2.55902C47.0853 2.55902 49.1986 5.25565 49.7287 8.77872H41.1894V8.77924C40.8587 8.78029 40.542 8.91228 40.3093 9.14704C40.0761 9.38181 39.9462 9.69952 39.9473 10.0303V25.5615C39.9473 26.2502 40.5055 26.8079 41.1941 26.8079C41.8828 26.8079 42.441 26.2502 42.441 25.5615V11.2724H51.3851C52.0701 11.2703 52.6247 10.7152 52.6273 10.0302C52.6273 4.68434 49.1283 0.0745229 44.4563 0.0745229C44.4162 0.0729577 44.3765 0.0729577 44.3363 0.0745229L44.3363 0.0746686Z" fill="#43B649"/>
<path d="M15.6932 0.0746639C11.6698 0.0730987 8.38103 3.34572 8.36901 7.36174V7.37113C8.36692 7.38052 8.35962 7.39461 8.35962 7.4087C8.33144 7.57408 8.29492 7.72902 8.29492 7.93301V44.94C8.29544 45.6626 8.90792 46.1691 9.62892 46.118C9.62892 46.118 10.5821 46.1175 11.7732 46.1175H26.7808C28.4435 46.1175 28.4435 43.6237 26.7808 43.6237H11.7732C11.228 43.6237 11.1831 43.6378 10.7887 43.6519V7.93372C10.7887 7.88416 10.7981 7.80017 10.8263 7.68539C10.845 7.59513 10.8544 7.50227 10.8544 7.40941V7.38124C10.8544 4.70491 13.008 2.5592 15.6942 2.5596C17.4894 2.70411 17.4894 -0.0693153 15.6942 0.0751922L15.6932 0.0746639Z" fill="#43B649"/>
<path d="M1.48472 43.5606C0.868069 43.5559 0.34011 44.0004 0.242547 44.6098C-0.0459603 46.3939 0.10429 47.8208 0.675041 48.9342C1.24578 50.0475 2.22296 50.7445 3.17761 51.0966C4.13227 51.4486 5.0896 51.5165 5.892 51.5379C6.69438 51.5614 7.40546 51.539 7.57601 51.5567C9.31905 51.8468 9.59912 49.1568 7.83373 49.0818C7.2223 49.0197 6.63225 49.0724 5.9566 49.0536C5.281 49.0348 4.58084 48.9482 4.04248 48.75C3.50461 48.5517 3.15715 48.3008 2.90151 47.8021C2.74291 47.4922 2.79821 46.7028 2.78204 46.0632C3.74145 46.0725 5.42498 46.096 7.98084 46.1101C9.58458 46.1195 11.1544 46.1289 12.287 46.1195C12.8535 46.1158 13.3105 46.1148 13.6209 46.1007C13.7764 46.096 13.8646 46.0913 14.0441 46.0632C14.091 46.0585 14.1338 46.0538 14.2553 46.0162C14.2835 46.0068 14.3649 45.9786 14.3654 45.9786C14.3665 45.9781 14.5485 45.8873 14.5496 45.8868C14.5506 45.8863 14.8621 45.6114 14.8626 45.6108C14.8631 45.6103 15.1475 44.8846 15.148 44.8841C15.148 44.8836 14.9179 44.1026 14.9179 44.1021C14.9174 44.1015 14.6059 43.7896 14.6049 43.789C14.6038 43.7885 14.4223 43.6884 14.4207 43.6878C12.9349 43.6257 12.9459 43.5986 12.2759 43.6247C11.1652 43.6341 9.58705 43.6247 7.98812 43.6153C4.79066 43.5965 1.48248 43.56 1.48248 43.56L1.48472 43.5606Z" fill="#43B649"/>
<path d="M14.9009 18.026C14.2138 18.0636 13.6869 18.65 13.7224 19.3371C13.7579 20.0242 14.3422 20.5532 15.0298 20.5198H36.1196C36.8077 20.5198 37.3659 19.9616 37.3659 19.2729C37.3659 18.5843 36.8077 18.0261 36.1196 18.0261H15.0298C14.987 18.024 14.9437 18.024 14.9009 18.0261L14.9009 18.026Z" fill="#43B649"/>
<path d="M15.0301 33.8057C14.3414 33.8057 13.7832 34.3639 13.7832 35.0525C13.7832 35.7412 14.3414 36.2994 15.0301 36.2994H25.4187C26.1074 36.2994 26.6656 35.7412 26.6656 35.0525C26.6656 34.3639 26.1074 33.8057 25.4187 33.8057H15.0301Z" fill="#43B649"/>
<path d="M14.9009 10.1316C14.2138 10.1691 13.6869 10.7555 13.7224 11.4426C13.7579 12.1297 14.3422 12.6582 15.0298 12.6253H36.1196C36.8077 12.6253 37.3659 12.0671 37.3659 11.3784C37.3659 10.6898 36.8077 10.1316 36.1196 10.1316H15.0298C14.987 10.1295 14.9437 10.1295 14.9009 10.1316L14.9009 10.1316Z" fill="#43B649"/>
<path d="M15.0301 25.9112C14.3414 25.9112 13.7832 26.4694 13.7832 27.1581C13.7832 27.8462 14.3414 28.4044 15.0301 28.4044H27.1576C27.8463 28.4044 28.4045 27.8462 28.4045 27.1581C28.4045 26.4694 27.8463 25.9112 27.1576 25.9112H15.0301Z" fill="#43B649"/>
<path d="M41.5656 24.219C40.7225 24.219 39.9457 24.4027 39.2836 24.7893C38.6216 25.1758 37.9861 25.8817 37.9861 26.8317V30.19C37.4937 30.359 37.0184 30.5599 36.551 30.7879L34.1678 28.4142C33.4964 27.7438 32.5457 27.6885 31.8029 27.8805C31.0601 28.0725 30.376 28.4987 29.7787 29.095L29.0796 29.8035C28.486 30.3977 28.0582 31.0785 27.8651 31.8183C27.6716 32.5607 27.7274 33.5129 28.3988 34.1832L30.7725 36.548C30.5451 37.0139 30.3432 37.4934 30.1746 37.9832H26.816C25.8665 37.9832 25.1611 38.6192 24.773 39.2807C24.3849 39.9422 24.1934 40.72 24.1934 41.5626V42.5565C24.1934 43.399 24.3853 44.1769 24.773 44.8384C25.1611 45.4999 25.8665 46.1359 26.816 46.1359H30.1746C30.3442 46.6273 30.544 47.1042 30.7725 47.5711L28.3988 49.9448C27.7274 50.6152 27.6716 51.5672 27.8651 52.3097C28.0587 53.052 28.4828 53.7292 29.0796 54.3245L29.7787 55.0236C30.3756 55.6193 31.0606 56.0451 31.8029 56.2381C32.5453 56.4311 33.4953 56.3852 34.1678 55.7138L36.5415 53.3401C37.011 53.5691 37.492 53.7595 37.986 53.9291V57.2874C37.986 58.2374 38.6214 58.9432 39.2835 59.3298C39.9455 59.7164 40.7228 59.9001 41.5654 59.9001H42.5593C43.4023 59.9001 44.1786 59.7159 44.8412 59.3298C45.5038 58.9438 46.1475 58.2395 46.1475 57.2874V53.938C46.639 53.7685 47.1163 53.5682 47.5827 53.3402L49.9659 55.7139C50.6384 56.3853 51.5883 56.4317 52.3308 56.2382C53.0732 56.0451 53.7493 55.6194 54.3461 55.0236L55.0546 54.3246C55.6514 53.7288 56.0662 53.0516 56.2603 52.3097C56.4538 51.5673 56.4074 50.6152 55.7359 49.9449L53.3528 47.5617C53.5797 47.0963 53.7827 46.6252 53.9506 46.1353H57.3183C58.2678 46.1353 58.9732 45.4999 59.3607 44.8378C59.7489 44.1763 59.931 43.3985 59.931 42.5559V41.5621C59.931 40.7195 59.7489 39.9416 59.3607 39.2801C58.9726 38.6186 58.2672 37.9827 57.3183 37.9827H53.9596C53.7906 37.4933 53.5892 37.0217 53.3617 36.5563L55.7354 34.1826V34.1732C56.3995 33.5033 56.4528 32.5574 56.2597 31.8177C56.0667 31.0779 55.6478 30.397 55.0541 29.8028V29.7935L54.3456 29.0944C53.7482 28.4981 53.0643 28.0718 52.3214 27.8798C51.5786 27.6878 50.6374 27.7432 49.9659 28.4135L47.5827 30.7872C47.1158 30.5598 46.6384 30.3573 46.1475 30.1894V26.84C46.1475 25.8879 45.5126 25.1758 44.8501 24.7882C44.1875 24.4006 43.4029 24.218 42.5588 24.218L41.5656 24.219ZM41.5656 26.7128H42.5594C43.0112 26.7128 43.4061 26.8354 43.5898 26.9429C43.7739 27.0509 43.6544 27.0363 43.6544 26.8417V31.0189V31.0184C43.656 31.587 44.0421 32.0832 44.593 32.2235C45.5268 32.4624 46.4226 32.8287 47.2521 33.3185H47.2526C47.7409 33.6039 48.3607 33.5246 48.7614 33.1255L51.7242 30.181C51.5896 30.3151 51.5004 30.2473 51.7054 30.3005C51.9094 30.3532 52.2626 30.5389 52.5798 30.8524L53.2883 31.5609C53.6075 31.8797 53.7964 32.2412 53.8496 32.4442C53.9023 32.6471 53.8355 32.5511 53.9691 32.416L51.0152 35.3693L51.0157 35.3698C50.6114 35.7721 50.5321 36.3971 50.8222 36.888C51.3142 37.7154 51.6856 38.6064 51.9266 39.5377C52.068 40.0923 52.5689 40.4794 53.1412 40.4762H57.3184C57.128 40.4762 57.1014 40.3583 57.2083 40.5409C57.3153 40.723 57.4384 41.1117 57.4384 41.5624V42.5563C57.4384 43.0065 57.3147 43.3957 57.2083 43.5778C57.1014 43.7598 57.128 43.6425 57.3184 43.6425H53.1317V43.6419C52.563 43.643 52.0669 44.029 51.9266 44.5805C51.6876 45.5117 51.312 46.4028 50.8221 47.2302C50.532 47.7206 50.6114 48.3461 51.0157 48.7483L53.9695 51.7017H53.969V51.7111C53.8344 51.5765 53.9027 51.4706 53.8495 51.6735C53.7963 51.8764 53.6075 52.238 53.2882 52.5567L52.5891 53.2652C52.2703 53.5835 51.9025 53.7728 51.6965 53.8266C51.4904 53.8803 51.5879 53.8125 51.7246 53.946L48.7708 50.9927C48.3685 50.5889 47.7435 50.5091 47.2526 50.7997C46.4226 51.2922 45.5284 51.6631 44.5935 51.9036C44.039 52.045 43.6519 52.5458 43.655 53.1181V57.286C43.655 57.0914 43.7745 57.0685 43.5903 57.1759C43.4067 57.2834 43.0123 57.406 42.56 57.406H41.5661C41.1133 57.406 40.7272 57.2824 40.5446 57.1759C40.362 57.0695 40.4711 57.094 40.4711 57.286V53.1088C40.4705 52.5433 40.0892 52.0487 39.5414 51.9047C38.6076 51.6658 37.7118 51.2995 36.8823 50.8097C36.3935 50.517 35.769 50.5926 35.3642 50.9938L32.4103 53.9471V53.9477H32.4009C32.5366 53.812 32.6341 53.8819 32.4291 53.8282C32.223 53.7745 31.8651 53.5856 31.5458 53.2668L30.8374 52.5584C30.5181 52.2396 30.3292 51.8781 30.276 51.6751C30.2233 51.4722 30.2901 51.5776 30.1566 51.7127L33.1194 48.7594V48.7588C33.5237 48.3566 33.603 47.7316 33.3129 47.2407C32.8209 46.4128 32.4401 45.5138 32.1996 44.5816C32.0587 44.0307 31.5626 43.6441 30.994 43.6431H26.8167C27.0071 43.6431 27.0249 43.761 26.9179 43.5784C26.811 43.3963 26.6879 43.0076 26.6879 42.5569V41.563C26.6879 41.1128 26.8115 40.7236 26.9179 40.5416C27.0249 40.3595 27.0071 40.4769 26.8167 40.4769H31.0034V40.4779C31.5721 40.4763 32.0682 40.0903 32.2086 39.5394C32.448 38.6071 32.8216 37.7175 33.3125 36.8896L33.313 36.8891C33.6031 36.3987 33.5238 35.7737 33.1195 35.371L30.1567 32.4176C30.2912 32.5522 30.2229 32.6482 30.2761 32.4458C30.3293 32.2429 30.5182 31.8813 30.8375 31.5626H30.8469L31.5459 30.8541C31.8642 30.5359 32.2242 30.3548 32.4292 30.3021C32.6347 30.2489 32.5361 30.3162 32.401 30.1827H32.4015H32.4109L35.3648 33.1272L35.3643 33.1267C35.767 33.531 36.392 33.6103 36.8829 33.3197C37.7124 32.8288 38.6082 32.4557 39.542 32.2158C40.0893 32.0718 40.4712 31.5767 40.4712 31.0106V26.8334C40.4712 27.0259 40.3616 27.0504 40.5447 26.9435C40.7273 26.8365 41.1134 26.7134 41.5662 26.7134L41.5656 26.7128Z" fill="#0F6F14"/>
</g>
<defs>
<clipPath id="clip0_354_1613">
<rect width="60" height="60" fill="white"/>
</clipPath>
</defs>
</svg>
