<svg width="32px" height="32px" viewBox="0 0 32 32" version="1.1" xmlns="http://www.w3.org/2000/svg" xmlns:xlink="http://www.w3.org/1999/xlink"><g id="icons/google-icon__TRKVXNMA" stroke="none" stroke-width="1" fill="none" fill-rule="evenodd"><g id="Google__G__Logo__TRKVXNMA" fill-rule="nonzero"><path d="M31.3260073,16.3750916 C31.3260073,15.2908425 31.2380952,14.2007326 31.0505495,13.1340659 L16.0058608,13.1340659 L16.0058608,19.2761905 L24.6212454,19.2761905 C24.2637363,21.2571429 23.1150183,23.0095238 21.432967,24.1230769 L21.432967,28.1084249 L26.5728938,28.1084249 C29.5912088,25.3304029 31.3260073,21.2278388 31.3260073,16.3750916 Z" fill="#2A84FC"></path><path d="M16.0058608,31.9589744 C20.3076923,31.9589744 23.9355311,30.5465201 26.5787546,28.1084249 L21.4388278,24.1230769 C20.0087912,25.0959707 18.1626374,25.6468864 16.0117216,25.6468864 C11.8505495,25.6468864 8.32234432,22.8395604 7.05641026,19.0652015 L1.75238095,19.0652015 L1.75238095,23.1736264 C4.46007326,28.559707 9.97509158,31.9589744 16.0058608,31.9589744 Z" fill="#00AC47"></path><path d="M7.05054945,19.0652015 C6.38241758,17.0842491 6.38241758,14.9391941 7.05054945,12.9582418 L7.05054945,8.84981685 L1.75238095,8.84981685 C-0.50989011,13.3567766 -0.50989011,18.6666667 1.75238095,23.1736264 L7.05054945,19.0652015 Z" fill="#FFBA00"></path><path d="M16.0058608,6.37069597 C18.2798535,6.33553114 20.4776557,7.19120879 22.1245421,8.76190476 L22.1245421,8.76190476 L26.6783883,4.20805861 C23.7948718,1.5003663 19.9677656,0.0117216117 16.0058608,0.0586080586 C9.97509158,0.0586080586 4.46007326,3.45787546 1.75238095,8.84981685 L7.05054945,12.9582418 C8.31062271,9.17802198 11.8446886,6.37069597 16.0058608,6.37069597 Z" fill="#FC2C25"></path></g></g></svg>