<svg width="60" height="60" viewBox="0 0 60 60" fill="none" xmlns="http://www.w3.org/2000/svg">
<path d="M12.375 14.5628L9.45752 13.2012C8.38471 12.7009 7.09863 13.1692 6.59824 14.242L0.237698 27.8866C-0.262665 28.9594 0.205661 30.2434 1.28017 30.7459L4.19427 32.1074C5.26708 32.6061 6.55488 32.1378 7.05732 31.0633L13.4158 17.423C13.9162 16.3481 13.4479 15.0619 12.375 14.5633L12.375 14.5628Z" fill="#43B649"/>
<path d="M59.7605 27.8858L53.4021 14.2412C52.8996 13.1684 51.6135 12.7001 50.539 13.2008L47.6249 14.5586C47.0377 14.8343 46.641 15.3481 46.475 15.9278L44.3901 16.0787C44.2164 16.0939 41.7179 16.2996 39.1116 16.6756C40.643 17.329 41.9519 17.9449 42.862 18.3866C43.8573 18.2829 44.5372 18.2281 44.5541 18.2243L46.8767 18.0544L52.5422 30.2087L50.9896 32.1861C45.2846 38.8772 27.963 45.0149 27.7893 45.0764C27.7383 45.0916 27.6894 45.1144 27.6439 45.1388C27.0659 45.4411 26.3447 45.2202 26.0404 44.6401C25.8932 44.3607 25.8608 44.0432 25.9552 43.7355C26.0479 43.4371 26.2537 43.1858 26.5348 43.0425V43.0387L32.0907 40.0985L31.084 38.1948L25.5358 41.135H25.532H25.5303L23.2603 42.3267C22.9825 42.4738 22.6596 42.508 22.3595 42.4118C22.0555 42.3191 21.806 42.1134 21.6589 41.8322C21.5118 41.5565 21.4814 41.2353 21.5775 40.9314C21.6703 40.6254 21.8739 40.3779 22.1555 40.2308H22.1571V40.227L28.8971 36.6672L27.8926 34.7634L21.1505 38.3271L19.1768 39.3712C18.5972 39.6735 17.8794 39.4526 17.5754 38.8763C17.2715 38.2967 17.494 37.5772 18.0703 37.2711L20.6442 35.9096H20.648L20.6518 35.9058L27.4086 32.3345L26.4058 30.4308L19.649 34.0021C19.6473 34.0021 19.6452 34.0021 19.6435 34.0059C19.364 34.153 19.0411 34.1833 18.7389 34.091C18.4366 33.9983 18.1913 33.7926 18.0421 33.5114C17.7381 32.9318 17.9607 32.2122 18.537 31.9062L31.0085 25.3193C30.1718 25.0642 29.1541 24.7544 28.0907 24.426L17.532 30.0026C15.9061 30.8655 15.281 32.8901 16.1401 34.5143C16.3344 34.8828 16.5856 35.1998 16.8879 35.4662C15.3961 36.3763 14.8485 38.3102 15.6734 39.8776C16.3947 41.2468 17.9379 41.9094 19.3825 41.5697C19.4222 42.0038 19.5469 42.4363 19.7564 42.8352C20.1738 43.6247 20.8743 44.2044 21.7241 44.4649C22.4003 44.6744 23.1122 44.663 23.7674 44.4421C23.8129 44.8556 23.9372 45.2616 24.1375 45.6413C24.7344 46.7744 25.8974 47.4186 27.095 47.4186C27.5936 47.4186 28.094 47.3073 28.5678 47.075C29.9596 46.5801 46.6724 40.5542 52.6552 33.5383L53.8486 32.0183C54.4303 32.3433 55.1515 32.3976 55.7995 32.0958L58.7153 30.7343C59.7923 30.2423 60.261 28.9579 59.7603 27.8856L59.7605 27.8858Z" fill="#0F6F14"/>
<path d="M16.5264 28.1102L27.8995 22.0974C27.8995 22.0974 32.4243 23.5648 33.5556 23.8274C40.8529 25.527 45.6819 22.2411 43.1945 20.955C40.3277 19.4687 29.7128 14.5076 25.5053 15.4709C22.8576 16.0791 18.5668 16.3224 15.7492 16.4189C15.7644 17.0723 15.6493 17.724 15.3661 18.3339L9.00758 31.9742C8.76772 32.486 8.42796 32.9298 8.02539 33.3017C9.42276 34.7576 11.3227 36.5366 13.1997 37.6094C13.3131 36.7612 13.6078 35.9456 14.0913 35.2335C12.9029 32.6103 13.9509 29.4694 16.5269 28.1099L16.5264 28.1102Z" fill="#43B649"/>
</svg>
