<svg xmlns="http://www.w3.org/2000/svg" viewBox="0 0 30 20"><rect width="30" height="20" style="fill:#de2910"/><path d="M15,10a3.017,3.017,0,0,1,1.4-5.823,1.031,1.031,0,0,0-.389,1.6A1.571,1.571,0,0,1,15.385,7.8,1.276,1.276,0,0,0,15,10Z" style="fill:#fff"/><path d="M14.81,6.7l-.2.31-.071-.36-.356-.092.321-.18-.023-.367.27.25.342-.134-.153.333.233.284Z" style="fill:#de2910"/><path d="M15.019,9.959A1.931,1.931,0,0,1,14.1,8.744a2.307,2.307,0,0,1,.27-1.834L14.3,6.863a2.4,2.4,0,0,0-.28,1.9,1.99,1.99,0,0,0,.96,1.269Z" style="fill:#de2910"/><path d="M15,10a3.017,3.017,0,0,1,5.972-.466,1.033,1.033,0,0,0-1.458-.093,1.053,1.053,0,0,0-.187.218,1.572,1.572,0,0,1-2.12.03A1.278,1.278,0,0,0,15,10Z" style="fill:#fff"/><path d="M18.082,8.8l-.356-.092.321-.18-.022-.366.27.25.342-.135-.155.333.234.284-.365-.043-.2.31Z" style="fill:#de2910"/><path d="M15.045,10.005a1.93,1.93,0,0,1,.872-1.246,2.308,2.308,0,0,1,1.828-.311l.022-.084a2.4,2.4,0,0,0-1.9.322,1.989,1.989,0,0,0-.91,1.3Z" style="fill:#de2910"/><path d="M15,10a3.017,3.017,0,0,1,2.288,5.535,1.034,1.034,0,0,0-.627-1.526A1.571,1.571,0,0,1,15.98,12,1.276,1.276,0,0,0,15,10Z" style="fill:#fff"/><path d="M17.1,12.56l-.023-.367.27.25.342-.134-.154.334.234.283-.365-.044-.2.31-.072-.36-.356-.092Z" style="fill:#de2910"/><path d="M15.01,10.044a1.929,1.929,0,0,1,1.454.445,2.3,2.3,0,0,1,.86,1.642l.087-.005a2.394,2.394,0,0,0-.893-1.7A1.991,1.991,0,0,0,15,9.958Z" style="fill:#de2910"/><path d="M15,10a3.017,3.017,0,0,1-4.558,3.887,1.033,1.033,0,0,0,1.234-.781,1.065,1.065,0,0,0,.024-.287,1.57,1.57,0,0,1,1.7-1.27A1.277,1.277,0,0,0,15,10Z" style="fill:#fff"/><path d="M13.213,12.784l.342-.135-.154.334.234.284-.365-.044-.2.31L13,13.173l-.356-.091.32-.18-.022-.367Z" style="fill:#de2910"/><path d="M14.961,10.022a1.936,1.936,0,0,1,.027,1.521,2.307,2.307,0,0,1-1.3,1.326l.033.081a2.4,2.4,0,0,0,1.345-1.376,1.994,1.994,0,0,0-.03-1.59Z" style="fill:#de2910"/><path d="M15,10A3.017,3.017,0,0,1,9.892,6.867a1.033,1.033,0,0,0,1.4.866A1.571,1.571,0,0,1,13.03,8.955,1.276,1.276,0,0,0,15,10Z" style="fill:#fff"/><path d="M11.8,9.161l.233.283L11.668,9.4l-.2.31L11.4,9.35l-.356-.092.321-.179-.023-.366.27.249.342-.135Z" style="fill:#de2910"/><path d="M14.966,9.97a1.927,1.927,0,0,1-1.437.495,2.306,2.306,0,0,1-1.662-.823L11.8,9.7a2.394,2.394,0,0,0,1.724.854,1.991,1.991,0,0,0,1.5-.52Z" style="fill:#de2910"/></svg>