<svg xmlns="http://www.w3.org/2000/svg" viewBox="0 0 21 5.086"><path d="M4.536,5.086H0V.608H.177A.387.387,0,0,1,.564,1V4.522H4.233a.3.3,0,0,1,.3.3Z" style="fill:#43b649"/><path d="M2.961,3.24,1.666,1.674l.166-.138a.324.324,0,0,1,.456.043l.706.855L5.061.6A.692.692,0,0,0,4.376,0H1.026V4.041H5.067V1.379Z" style="fill:#43b649"/><path d="M6.832,3.927l-.155.026a1.294,1.294,0,0,1-.207.017,1.061,1.061,0,0,1-.188-.015A.309.309,0,0,1,6.141,3.9a.271.271,0,0,1-.088-.117.5.5,0,0,1-.031-.193V.825L6.177.8A1.294,1.294,0,0,1,6.384.782,1.061,1.061,0,0,1,6.572.8a.309.309,0,0,1,.141.057A.271.271,0,0,1,6.8.971a.5.5,0,0,1,.031.193Z" style="fill:#231f20"/><path d="M8.471,4.008a1.68,1.68,0,0,1-.522-.079,1.175,1.175,0,0,1-.419-.236A1.088,1.088,0,0,1,7.249,3.3a1.393,1.393,0,0,1-.1-.558,1.291,1.291,0,0,1,.1-.54,1.043,1.043,0,0,1,.65-.586,1.422,1.422,0,0,1,.438-.069,1.317,1.317,0,0,1,.46.076,1.108,1.108,0,0,1,.357.21.93.93,0,0,1,.234.319.988.988,0,0,1,.083.405.324.324,0,0,1-.09.247.452.452,0,0,1-.253.11l-1.177.176a.4.4,0,0,0,.215.236.846.846,0,0,0,.371.079,1.345,1.345,0,0,0,.37-.05,1.213,1.213,0,0,0,.283-.117.4.4,0,0,1,.129.133.351.351,0,0,1-.148.5,1.062,1.062,0,0,1-.343.109A2.424,2.424,0,0,1,8.471,4.008ZM8.337,2.135a.458.458,0,0,0-.2.039.4.4,0,0,0-.136.1.413.413,0,0,0-.079.134.557.557,0,0,0-.031.15l.815-.134a.365.365,0,0,0-.105-.19A.349.349,0,0,0,8.337,2.135Z" style="fill:#231f20"/><path d="M11.234,2.464a.268.268,0,0,0-.083-.217.346.346,0,0,0-.227-.069.751.751,0,0,0-.188.024.479.479,0,0,0-.16.072V3.927a1.077,1.077,0,0,1-.15.028,1.459,1.459,0,0,1-.212.015,1.069,1.069,0,0,1-.188-.015.31.31,0,0,1-.14-.057A.264.264,0,0,1,9.8,3.781a.5.5,0,0,1-.031-.193V2.159a.368.368,0,0,1,.054-.209.587.587,0,0,1,.15-.148,1.379,1.379,0,0,1,.408-.186,1.929,1.929,0,0,1,.545-.071,1.281,1.281,0,0,1,.829.236.8.8,0,0,1,.291.655V3.927a1.141,1.141,0,0,1-.15.028,1.47,1.47,0,0,1-.212.015,1.081,1.081,0,0,1-.189-.015.31.31,0,0,1-.14-.057.264.264,0,0,1-.088-.117.5.5,0,0,1-.031-.193Z" style="fill:#231f20"/><path d="M12.349,2.774a1.418,1.418,0,0,1,.1-.546,1.037,1.037,0,0,1,.264-.383,1.08,1.08,0,0,1,.4-.226,1.536,1.536,0,0,1,.488-.074,1.038,1.038,0,0,1,.186.016.789.789,0,0,1,.147.041V.83A1.408,1.408,0,0,1,14.078.8a1.373,1.373,0,0,1,.214-.017A1.061,1.061,0,0,1,14.48.8a.309.309,0,0,1,.141.057.253.253,0,0,1,.086.117.543.543,0,0,1,.028.193V3.422a.407.407,0,0,1-.209.357,1.469,1.469,0,0,1-.358.16,1.857,1.857,0,0,1-1.06-.017,1.13,1.13,0,0,1-.414-.248,1.05,1.05,0,0,1-.257-.388A1.4,1.4,0,0,1,12.349,2.774Zm1.353-.6a.517.517,0,0,0-.4.148.636.636,0,0,0-.138.448.666.666,0,0,0,.129.445.46.46,0,0,0,.371.15.424.424,0,0,0,.155-.026.342.342,0,0,0,.107-.059V2.235A.436.436,0,0,0,13.7,2.178Z" style="fill:#231f20"/><path d="M16.369,4.008a1.678,1.678,0,0,1-.521-.079,1.166,1.166,0,0,1-.419-.236,1.09,1.09,0,0,1-.282-.395,1.411,1.411,0,0,1-.1-.558,1.307,1.307,0,0,1,.1-.54,1.048,1.048,0,0,1,.651-.586,1.422,1.422,0,0,1,.438-.069,1.321,1.321,0,0,1,.46.076,1.108,1.108,0,0,1,.357.21.914.914,0,0,1,.233.319.972.972,0,0,1,.084.405.321.321,0,0,1-.091.247.445.445,0,0,1-.252.11l-1.177.176a.393.393,0,0,0,.215.236.84.84,0,0,0,.371.079,1.343,1.343,0,0,0,.369-.05,1.223,1.223,0,0,0,.284-.117.4.4,0,0,1,.128.133.35.35,0,0,1-.147.5,1.062,1.062,0,0,1-.343.109A2.426,2.426,0,0,1,16.369,4.008Zm-.133-1.873a.466.466,0,0,0-.2.039.39.39,0,0,0-.214.231.521.521,0,0,0-.031.15l.815-.134a.365.365,0,0,0-.105-.19A.352.352,0,0,0,16.236,2.135Z" style="fill:#231f20"/><path d="M18.489,3.927l-.154.026a1.316,1.316,0,0,1-.208.017,1.069,1.069,0,0,1-.188-.015A.31.31,0,0,1,17.8,3.9a.265.265,0,0,1-.089-.117.515.515,0,0,1-.031-.193V.825L17.834.8a1.316,1.316,0,0,1,.208-.017A1.077,1.077,0,0,1,18.23.8a.31.31,0,0,1,.14.057.264.264,0,0,1,.088.117.5.5,0,0,1,.031.193Z" style="fill:#231f20"/><path d="M19.857,1.545a1.952,1.952,0,0,1,.469.052,1.043,1.043,0,0,1,.362.16.72.72,0,0,1,.231.271A.872.872,0,0,1,21,2.417V3.484a.3.3,0,0,1-.069.2.68.68,0,0,1-.164.136,1.7,1.7,0,0,1-.872.186,1.973,1.973,0,0,1-.455-.048,1.077,1.077,0,0,1-.348-.143.644.644,0,0,1-.224-.243.723.723,0,0,1-.079-.343.647.647,0,0,1,.2-.5,1.06,1.06,0,0,1,.605-.219l.624-.067V2.407a.205.205,0,0,0-.122-.2.827.827,0,0,0-.35-.059,1.582,1.582,0,0,0-.352.038,1.828,1.828,0,0,0-.31.095.33.33,0,0,1-.1-.131.423.423,0,0,1-.043-.183.3.3,0,0,1,.06-.2.468.468,0,0,1,.183-.126,1.43,1.43,0,0,1,.327-.077A2.986,2.986,0,0,1,19.857,1.545ZM19.9,3.417a1.075,1.075,0,0,0,.178-.017.442.442,0,0,0,.146-.045V2.974L19.876,3a.531.531,0,0,0-.219.058.152.152,0,0,0-.086.143.186.186,0,0,0,.074.154A.4.4,0,0,0,19.9,3.417Z" style="fill:#231f20"/></svg>