<svg id="key" xmlns="http://www.w3.org/2000/svg" width="94.452" height="101.101" viewBox="0 0 94.452 101.101">
  <path id="Path_734" data-name="Path 734" d="M2795.063,1447.014h6.753v43.9a3.376,3.376,0,0,1-6.753,0Z" transform="translate(-2779.959 -1394.873)" fill="#ffcb78"/>
  <path id="Path_735" data-name="Path 735" d="M2827.058,1598.992h16.883v10.13h-16.883Z" transform="translate(-2805.201 -1514.773)" fill="#ffcb78"/>
  <path id="Path_736" data-name="Path 736" d="M2827.058,1535h11.818v6.753h-11.818Z" transform="translate(-2805.201 -1464.288)" fill="#ffcb78"/>
  <path id="Path_737" data-name="Path 737" d="M2754.708,1367.026a10.07,10.07,0,0,1-13.506,0,10.13,10.13,0,1,0,0,20.259,10.069,10.069,0,0,1,13.506,0,10.13,10.13,0,1,0,0-20.259Zm-13.506,13.506a3.377,3.377,0,1,1,3.376-3.377A3.376,3.376,0,0,1,2741.2,1380.532Zm13.506,0a3.377,3.377,0,1,1,3.377-3.377A3.376,3.376,0,0,1,2754.708,1380.532Z" transform="translate(-2729.474 -1331.767)" fill="#ffcb78"/>
  <path id="Path_738" data-name="Path 738" d="M3003.032,1471.011H3036.8v42.207h-33.765Z" transform="translate(-2944.033 -1413.804)" fill="#f7f8f8"/>
  <path id="Path_739" data-name="Path 739" d="M3026.668,1359.027h-13.506a10.13,10.13,0,0,0-10.129,10.13v13.506H3036.8v-13.506A10.13,10.13,0,0,0,3026.668,1359.027Zm-6.753,16.883a5.065,5.065,0,1,1,5.065-5.065A5.064,5.064,0,0,1,3019.915,1375.91Z" transform="translate(-2944.033 -1325.456)" fill="#43b649"/>
  <path id="Path_740" data-name="Path 740" d="M3060.856,1523.265a2.532,2.532,0,0,1-2.532-2.532,1.688,1.688,0,0,0-3.376,0,5.907,5.907,0,0,0,4.22,5.638v1.959a1.688,1.688,0,1,0,3.376,0v-1.959a5.892,5.892,0,0,0-1.688-11.547,2.532,2.532,0,1,1,2.532-2.532,1.688,1.688,0,0,0,3.376,0,5.909,5.909,0,0,0-4.221-5.638v-1.959a1.688,1.688,0,1,0-3.376,0v1.959a5.892,5.892,0,0,0,1.688,11.547,2.533,2.533,0,0,1,0,5.065Z" transform="translate(-2984.974 -1439.046)" fill="#303b71"/>
  <path id="Path_741" data-name="Path 741" d="M2806.136,1231.856h-5.065v-1.688a30.389,30.389,0,0,0-60.339-4.947,8.442,8.442,0,0,0-7.192,8.323v.135a11.818,11.818,0,0,0,1.688,23.5,11.483,11.483,0,0,0,1.688-.118v38.948a5.065,5.065,0,1,0,10.129,0h15.195a1.688,1.688,0,0,0,1.688-1.688v-10.13a1.688,1.688,0,0,0-1.688-1.688h-15.195v-3.377h10.13a1.688,1.688,0,0,0,1.688-1.688v-6.753a1.688,1.688,0,0,0-1.688-1.688h-10.13v-6.753a1.688,1.688,0,1,0-3.376,0v8.441a1.688,1.688,0,0,0,1.688,1.688h10.13v3.377h-10.13a1.688,1.688,0,0,0-1.688,1.688v6.753a1.689,1.689,0,0,0,1.688,1.688h15.194v6.753h-15.194a1.688,1.688,0,0,0-1.688,1.688v1.688a1.688,1.688,0,0,1-3.377,0V1254.9a1.688,1.688,0,0,0-2.245-1.587,8.6,8.6,0,0,1-2.819.49,8.441,8.441,0,1,1,5.621-14.721,1.69,1.69,0,0,0,2.263,0,8.441,8.441,0,1,1,5.622,14.721,8.6,8.6,0,0,1-2.82-.49,1.688,1.688,0,1,0-1.114,3.174,11.683,11.683,0,0,0,3.934.693,11.818,11.818,0,0,0,1.688-23.5v-.135a8.442,8.442,0,0,0-6.314-8.137,27.012,27.012,0,0,1,53.586,4.761v1.688h-5.064a11.818,11.818,0,0,0-11.818,11.818v35.454a1.688,1.688,0,0,0,3.377,0v-20.259h25.324a1.688,1.688,0,1,0,0-3.376h-25.324v-11.818a8.441,8.441,0,0,1,8.441-8.441h5.064v3.613a6.753,6.753,0,1,0,3.377,0v-3.613h5.065a8.442,8.442,0,0,1,8.441,8.441V1297.7h-30.389v-11.818a1.688,1.688,0,1,0-3.377,0v13.506a1.689,1.689,0,0,0,1.688,1.688h33.765a1.688,1.688,0,0,0,1.688-1.688v-55.713A11.818,11.818,0,0,0,2806.136,1231.856Zm-59.09,1.688v.135a7.433,7.433,0,0,1-10.129,0v-.135a5.065,5.065,0,0,1,3.376-4.778v1.4a1.688,1.688,0,0,0,3.377,0v-1.35A5.065,5.065,0,0,1,2747.046,1233.544Zm55.713,11.818a3.377,3.377,0,1,1-5.065-2.9v1.215a1.688,1.688,0,0,0,3.377,0v-1.215A3.378,3.378,0,0,1,2802.759,1245.362Z" transform="translate(-2723.501 -1199.974)" fill="#0f6f14"/>
  <path id="Path_742" data-name="Path 742" d="M2755.068,1396.087a5.065,5.065,0,1,0,5.065-5.065A5.065,5.065,0,0,0,2755.068,1396.087Zm6.753,0a1.688,1.688,0,1,1-1.688-1.688A1.688,1.688,0,0,1,2761.821,1396.087Z" transform="translate(-2748.405 -1350.698)" fill="#0f6f14"/>
  <path id="Path_743" data-name="Path 743" d="M2824.124,1401.151a5.065,5.065,0,1,0-5.065-5.065A5.065,5.065,0,0,0,2824.124,1401.151Zm0-6.753a1.688,1.688,0,1,1-1.688,1.688A1.688,1.688,0,0,1,2824.124,1394.4Z" transform="translate(-2798.89 -1350.698)" fill="#0f6f14"/>
</svg>
