<svg xmlns="http://www.w3.org/2000/svg" viewBox="0 0 20 20"><path d="M4.681,11.612a5.222,5.222,0,1,0,8.083-4.377,1.913,1.913,0,0,1-.83-1.248H7.871a1.892,1.892,0,0,1-.819,1.241A5.229,5.229,0,0,0,4.681,11.612Z" style="fill:#f7f8f8"/><path d="M8.776,2.506H11.23a.826.826,0,0,0,.829.821h0v2.66H7.947V3.327a.825.825,0,0,0,.829-.82h0Z" style="fill:#43b649"/><path d="M13.115,6.907a1.524,1.524,0,0,1-.661-.961V3.327a.393.393,0,0,0-.4-.391h0a.432.432,0,0,1-.434-.43.393.393,0,0,0-.395-.391h-.842V.4A.395.395,0,0,0,9.6.4h0v1.72H8.775a.393.393,0,0,0-.395.391h0a.432.432,0,0,1-.434.43.394.394,0,0,0-.395.391h0V5.946A1.5,1.5,0,0,1,6.9,6.9a5.592,5.592,0,0,0-1.694,7.724h0l.038.059A5.7,5.7,0,0,0,10,17.236h0a5.614,5.614,0,0,0,3.11-10.329ZM8.342,3.653A1.224,1.224,0,0,0,9.105,2.9h1.8a1.224,1.224,0,0,0,.763.756V4.07H10a.391.391,0,0,0-.03.782h1.7V5.6H8.341V3.653ZM10,16.454h0a4.833,4.833,0,0,1-2.669-8.9A2.29,2.29,0,0,0,8.25,6.378h.456V9.583h-.25a1.035,1.035,0,0,0-1.04,1.029v.052a1.04,1.04,0,0,0,2.079,0v-.3h.948v.3a1.035,1.035,0,0,0,1.04,1.03h.067a1.036,1.036,0,0,0,1.04-1.03v-.052a1.036,1.036,0,0,0-1.04-1.029h-.317v-.47a.4.4,0,0,0-.79-.017v.487H9.5v-3.2h2.26a2.313,2.313,0,0,0,.926,1.183,4.814,4.814,0,0,1,1.445,6.653h0l-.034.051A4.9,4.9,0,0,1,10,16.454Zm-1.3-6.09v.3a.25.25,0,0,1-.5,0v-.052a.249.249,0,0,1,.25-.247Zm2.527.3v-.3h.317a.25.25,0,0,1,.25.248v.052a.25.25,0,0,1-.25.248h-.067a.25.25,0,0,1-.25-.248Z" style="fill:#0f6f14"/><path d="M10,17.847a.393.393,0,0,0-.395.391h0V19.63a.395.395,0,1,0,.79,0V18.238A.393.393,0,0,0,10,17.847Z" style="fill:#ed6725"/><path d="M18.1,11.217H16.689a.391.391,0,1,0-.036.782H18.1a.391.391,0,0,0,.03-.782Z" style="fill:#ed6725"/><path d="M3.308,11.226H1.9a.391.391,0,1,0-.018.782H3.308a.391.391,0,1,0,.02-.782Z" style="fill:#ed6725"/><path d="M14.726,7.316a.393.393,0,0,0,.279-.115L16,6.217a.389.389,0,0,0,0-.55h0l0,0a.4.4,0,0,0-.55,0l-.994.984a.387.387,0,0,0,0,.549h0l0,0a.4.4,0,0,0,.278.114Z" style="fill:#ed6725"/><path d="M4.992,16.024,4,17.008a.388.388,0,0,0-.013.549h0l0,0a.4.4,0,0,0,.558.008l.009-.008.994-.984a.39.39,0,0,0,0-.55l0,0A.4.4,0,0,0,4.992,16.024Z" style="fill:#ed6725"/><path d="M15.012,16.018a.4.4,0,0,0-.559-.009.388.388,0,0,0-.012.549h0l0,0,.008.008.994.985a.4.4,0,0,0,.559,0,.388.388,0,0,0,0-.549l0,0Z" style="fill:#ed6725"/><path d="M4.986,7.207A.4.4,0,0,0,5.544,7.2a.388.388,0,0,0,0-.545L4.55,5.67a.4.4,0,0,0-.558.009.387.387,0,0,0,0,.544Z" style="fill:#ed6725"/><path d="M13.441,11.221a.392.392,0,0,0-.394.391h0a2.994,2.994,0,0,1-1.684,2.7.39.39,0,0,0-.188.518h0l0,0a.4.4,0,0,0,.526.184l.013-.006a3.771,3.771,0,0,0,2.12-3.4.392.392,0,0,0-.394-.39h0Z" style="fill:#43b649"/><path d="M10.838,7.159a.393.393,0,1,0,.279.114A.4.4,0,0,0,10.838,7.159Z" style="fill:#0f6f14"/><path d="M10.005,14.626a.393.393,0,1,0,.395.391.393.393,0,0,0-.395-.391Z" style="fill:#43b649"/></svg>