<svg xmlns="http://www.w3.org/2000/svg" viewBox="0 0 153 153"><circle cx="76.5" cy="76.5" r="76.5" style="fill:#f8f6f5"/><path d="M33.81,37.57h66.73V108H33.81Z" style="fill:#f7f8f8"/><path d="M41.22,22.74h51.9a7.42,7.42,0,0,1,7.42,7.42v7.41H33.81V30.16A7.42,7.42,0,0,1,41.22,22.74Z" style="fill:#43b649"/><path d="M33.81,118.94V108.05h66.73v10.89c0,6-3.32,10.89-7.42,10.89H41.22C37.13,129.83,33.81,125,33.81,118.94Z" style="fill:#43b649"/><path d="M59.76,115.42H74.59a3.71,3.71,0,0,1,0,7.42H59.76a3.71,3.71,0,1,1,0-7.42Z" style="fill:#43b649"/><path d="M78.29,65.38A18.54,18.54,0,1,1,59.76,46.84,18.53,18.53,0,0,1,78.29,65.38Z" style="fill:#f1f1f2"/><path d="M130.19,67.23H70.88L100.54,45Z" style="fill:#ffcb78"/><path d="M80.15,67.23h7.41v26H80.15Z" style="fill:#ffcb78"/><path d="M96.83,67.23h7.41v26H96.83Z" style="fill:#ffcb78"/><path d="M113.51,67.23h7.42v26h-7.42Z" style="fill:#ffcb78"/><path d="M74.59,93.18h51.9v7.41H74.59Z" style="fill:#ffcb78"/><path d="M100.54,106.16H35.66v-76a5.56,5.56,0,0,1,5.56-5.56h51.9a5.56,5.56,0,0,1,5.56,5.56v5.56H41.22a1.86,1.86,0,0,0,0,3.71h59.31a1.86,1.86,0,0,0,1.86-1.86V30.16a9.27,9.27,0,0,0-9.27-9.27H41.22A9.27,9.27,0,0,0,32,30.16v92.68a9.27,9.27,0,0,0,9.27,9.27h51.9a9.27,9.27,0,0,0,9.27-9.27h0V108A1.85,1.85,0,0,0,100.54,106.16Zm-1.86,16.68a5.56,5.56,0,0,1-5.56,5.56H41.22a5.56,5.56,0,0,1-5.56-5.56v-13h63Z" style="fill:#0f6f14"/><path d="M59.76,124.69H74.59a1.86,1.86,0,0,0,0-3.71H59.76a1.85,1.85,0,1,1,0-3.7H74.59a1.86,1.86,0,0,0,0-3.71H59.76a5.56,5.56,0,0,0,0,11.12Z" style="fill:#0f6f14"/><path d="M41.22,32h9.27a1.86,1.86,0,0,0,0-3.71H41.22a1.86,1.86,0,0,0,0,3.71Z" style="fill:#0f6f14"/><path d="M93.12,30.16a1.85,1.85,0,1,1-1.85-1.86h0A1.85,1.85,0,0,1,93.12,30.16Z" style="fill:#0f6f14"/><path d="M85.71,30.16a1.86,1.86,0,1,1-1.85-1.86h0A1.85,1.85,0,0,1,85.71,30.16Z" style="fill:#0f6f14"/><path d="M78.29,30.16a1.85,1.85,0,1,1-1.85-1.86h0A1.85,1.85,0,0,1,78.29,30.16Z" style="fill:#0f6f14"/><path d="M59.76,58a2.78,2.78,0,0,1,2.78,2.78h0a1.86,1.86,0,1,0,3.71,0h0a6.5,6.5,0,0,0-4.64-6.19V52.4a1.85,1.85,0,0,0-3.7,0v2.15a6.47,6.47,0,0,0,1.85,12.68A2.78,2.78,0,1,1,57,70h0a1.86,1.86,0,0,0-3.71,0,6.49,6.49,0,0,0,4.64,6.19v2.15a1.85,1.85,0,0,0,3.7,0V76.2a6.47,6.47,0,0,0-1.85-12.68,2.78,2.78,0,0,1,0-5.56Z" style="fill:#303b71"/><path d="M73.42,55.83A1.85,1.85,0,0,0,76.66,54a1.73,1.73,0,0,0-.22-.31A20.39,20.39,0,1,0,71.37,82.1,20.13,20.13,0,0,0,74,79.89a1.85,1.85,0,0,0-2.59-2.65,16.67,16.67,0,1,1,.18-23.57,16.9,16.9,0,0,1,1.8,2.16Z" style="fill:#ed6725"/><path d="M57.9,93.18v7.41a1.86,1.86,0,0,0,3.71,0V93.18a1.86,1.86,0,0,0-3.71,0Z" style="fill:#43b649"/><path d="M39.37,85.77v3.7a1.86,1.86,0,0,0,3.71,0v-3.7a1.86,1.86,0,0,0-3.71,0Z" style="fill:#43b649"/><path d="M48.64,89.47v7.42a1.85,1.85,0,0,0,3.7,0V89.47a1.85,1.85,0,0,0-3.7,0Z" style="fill:#43b649"/><path d="M131.25,65.91,101.72,43.5a1.86,1.86,0,0,0-2.22,0L69.71,65.58a1.85,1.85,0,0,0-.37,2.6,1.88,1.88,0,0,0,1.47.74h7.41V91.33H74.59a1.85,1.85,0,1,0,0,3.7h50v3.71h-50a1.86,1.86,0,1,0,0,3.71h51.9a1.85,1.85,0,0,0,1.85-1.85V93.18a1.85,1.85,0,0,0-1.85-1.85h-3.71V69.21h7.42a1.85,1.85,0,0,0,1.1-3.33ZM82,91.33V69.08h3.71V91.33Zm16.69,0V74.64a1.86,1.86,0,0,0-3.71,0V91.33H89.42V69.08h13V91.33Zm13-22.25V91.33H106.1V69.08Zm7.42,22.25h-3.71V69.08h3.71Zm2.41-25.84a1.4,1.4,0,0,0-1.1,0h-6.53a1.42,1.42,0,0,0-.35-.11h-9.26l-27.81-.15,24.1-17.93,24.1,18.21Z" style="fill:#ed6725"/><path d="M91.27,59.82a1.85,1.85,0,0,0,1.85,1.85H108A1.86,1.86,0,0,0,108,58H93.12a1.85,1.85,0,0,0-1.85,1.85Z" style="fill:#ed6725"/></svg>