<svg xmlns="http://www.w3.org/2000/svg" viewBox="0 0 30 20"><rect width="30" height="20" style="fill:#fff"/><rect width="30" height="10" style="fill:#ed2939"/><path d="M4.891,5A3.047,3.047,0,0,1,7.283,2.028a3.043,3.043,0,1,0,0,5.945A3.048,3.048,0,0,1,4.891,5Z" style="fill:#f0f0f0"/><polygon points="8.803 2.174 9.019 2.838 9.718 2.838 9.153 3.248 9.369 3.913 8.803 3.502 8.238 3.913 8.454 3.248 7.889 2.838 8.588 2.838 8.803 2.174" style="fill:#f0f0f0"/><polygon points="7.109 3.478 7.325 4.143 8.023 4.143 7.458 4.553 7.674 5.217 7.109 4.806 6.544 5.217 6.76 4.553 6.195 4.143 6.893 4.143 7.109 3.478" style="fill:#f0f0f0"/><polygon points="10.498 3.478 10.713 4.143 11.412 4.143 10.847 4.553 11.063 5.217 10.498 4.806 9.932 5.217 10.149 4.553 9.583 4.143 10.282 4.143 10.498 3.478" style="fill:#f0f0f0"/><polygon points="9.846 5.435 10.061 6.099 10.76 6.099 10.195 6.509 10.411 7.174 9.846 6.763 9.28 7.174 9.496 6.509 8.931 6.099 9.629 6.099 9.846 5.435" style="fill:#f0f0f0"/><polygon points="7.761 5.435 7.977 6.099 8.676 6.099 8.11 6.509 8.326 7.174 7.761 6.763 7.196 7.174 7.412 6.509 6.847 6.099 7.545 6.099 7.761 5.435" style="fill:#f0f0f0"/></svg>