<svg height="153" viewBox="0 0 153 153" width="153" xmlns="http://www.w3.org/2000/svg"><circle cx="76.5" cy="76.5" fill="#f8f6f5" r="76.5"/><path d="m71.858 21.001h17.835v10.291h-17.835z" fill="#d5f5fb"/><path d="m256.1 32.775h18.77a6.257 6.257 0 0 0 6.257-6.257 6.257 6.257 0 0 0 -6.257-6.257h-18.77a6.257 6.257 0 0 0 -6.257 6.257 6.257 6.257 0 0 0 6.257 6.257z" fill="#ed6725" transform="translate(-184.714 -11.774)"/><circle cx="80.815" cy="81.346" fill="#43b649" r="50.053"/><circle cx="80.815" cy="81.346" fill="#fff" r="37.834"/><circle cx="80.815" cy="81.346" fill="#ed6725" r="5.494"/><path d="m133.216 80.489a52.617 52.617 0 0 0 -40.916-46.139v-6.623a8.863 8.863 0 0 0 -2.139-17.465h-18.77a8.863 8.863 0 0 0 -2.14 17.465v6.642a52.346 52.346 0 0 0 -25.672 14.122 52.912 52.912 0 0 0 -4.426 5.023c-.065 0-.131-.01-.2-.01h-18.575a2.607 2.607 0 1 0 0 5.214h15.227a52.26 52.26 0 0 0 -4.626 10.02h-28.372a2.607 2.607 0 1 0 0 5.214h26.9a53.005 53.005 0 0 0 -1.294 10.02h-11.529a2.607 2.607 0 0 0 0 5.214h11.616a52.928 52.928 0 0 0 1.628 10.02h-16.893a2.607 2.607 0 0 0 0 5.214h18.552a52.653 52.653 0 0 0 44.023 33.711q2.583.255 5.167.254a52.787 52.787 0 0 0 28.738-8.494 2.607 2.607 0 0 0 -2.845-4.369 47.446 47.446 0 1 1 13.974-13.992 2.607 2.607 0 1 0 4.373 2.839 52.828 52.828 0 0 0 8.199-33.88zm-65.475-61.363a3.654 3.654 0 0 1 3.65-3.65h18.77a3.65 3.65 0 0 1 0 7.3h-18.77a3.654 3.654 0 0 1 -3.65-3.65zm6.724 14.347v-5.484h12.621v5.474a53.118 53.118 0 0 0 -12.621.01z" fill="#0f6f14" transform="translate(0 -4.381)"/><path d="m438.377 425.5a2.608 2.608 0 1 0 1.843.764 2.621 2.621 0 0 0 -1.843-.764z" fill="#0fa316" transform="translate(-322.167 -311.369)"/><path d="m195.313 144.609a40.441 40.441 0 1 0 40.441 40.441 40.487 40.487 0 0 0 -40.441-40.441zm0 75.669a35.227 35.227 0 1 1 35.227-35.227 35.267 35.267 0 0 1 -35.227 35.227z" fill="#0f6f14" transform="translate(-114.498 -103.704)"/><g fill="#303b71"><path d="m287.334 220.175-12.912 12.912a8.08 8.08 0 0 0 -7.157 0l-5.779-5.779a2.607 2.607 0 1 0 -3.687 3.687l5.779 5.779a8.1 8.1 0 1 0 14.531 0l12.533-12.533.379-.379a2.607 2.607 0 0 0 -3.687-3.687zm-16.49 23.064a2.887 2.887 0 1 1 2.887-2.887 2.89 2.89 0 0 1 -2.887 2.887z" transform="translate(-190.028 -159.006)"/><path d="m402.677 289.86h-2.415a2.607 2.607 0 1 0 0 5.214h2.415a2.607 2.607 0 1 0 0-5.214z" transform="translate(-293.988 -211.089)"/><path d="m198.1 289.616h-2.415a2.607 2.607 0 1 0 0 5.214h2.415a2.607 2.607 0 1 0 0-5.214z" transform="translate(-142.747 -210.909)"/><path d="m302.73 190.448a2.607 2.607 0 0 0 2.607-2.607v-2.415a2.607 2.607 0 1 0 -5.214 0v2.415a2.607 2.607 0 0 0 2.607 2.607z" transform="translate(-221.883 -131.953)"/><path d="m302.486 387.393a2.607 2.607 0 0 0 -2.607 2.607v2.415a2.607 2.607 0 0 0 5.214 0v-2.415a2.607 2.607 0 0 0 -2.607-2.607z" transform="translate(-221.702 -283.196)"/></g><path d="m2.607 351.44a2.607 2.607 0 1 0 1.843 4.45 2.607 2.607 0 0 0 -1.843-4.45z" fill="#0fa316" transform="translate(0 -256.616)"/></svg>