<svg id="target" xmlns="http://www.w3.org/2000/svg" width="101.299" height="101.312" viewBox="0 0 101.299 101.312">
  <path id="Path_1003" data-name="Path 1003" d="M1971.612,414.647h-23.628V382.581l11.814-8.438,11.814,8.438Z" transform="translate(-1946.297 -372.457)" fill="#ffcb78"/>
  <path id="Path_1004" data-name="Path 1004" d="M2189.976,623.421l5.846-3.375,23.627,40.923a3.375,3.375,0,1,1-5.846,3.375Z" transform="translate(-2137.213 -566.459)" fill="#ffcb78"/>
  <path id="Path_1005" data-name="Path 1005" d="M2029.635,665.6a3.376,3.376,0,0,1-1.235-4.611l23.627-40.923,5.846,3.375-23.627,40.923A3.375,3.375,0,0,1,2029.635,665.6Z" transform="translate(-2009.382 -566.47)" fill="#ffcb78"/>
  <path id="Path_1006" data-name="Path 1006" d="M2082.834,473.552a35.441,35.441,0,1,1-35.441-35.441A35.441,35.441,0,0,1,2082.834,473.552Z" transform="translate(-1996.764 -422.924)" fill="#43b649"/>
  <path id="Path_1007" data-name="Path 1007" d="M2115.179,517.709a23.627,23.627,0,1,1-23.627-23.627A23.628,23.628,0,0,1,2115.179,517.709Z" transform="translate(-2040.922 -467.081)" fill="#f7f8f8"/>
  <path id="Path_1008" data-name="Path 1008" d="M2147.523,561.867a11.814,11.814,0,1,1-11.814-11.814A11.814,11.814,0,0,1,2147.523,561.867Z" transform="translate(-2085.08 -511.239)" fill="#ffcb78"/>
  <path id="Path_1009" data-name="Path 1009" d="M2208.5,418.121l-35.575,35.592a3.365,3.365,0,0,0,4.759,4.759l35.593-35.576Z" transform="translate(-2122.982 -407.153)" fill="#ffcb78"/>
  <path id="Path_1010" data-name="Path 1010" d="M2331.446,383.694l-11.931,11.932-7.156-2.4-2.4-7.155,11.932-11.931,2.4,7.155Z" transform="translate(-2231.874 -372.457)" fill="#ffcb78"/>
  <path id="Path_1011" data-name="Path 1011" d="M2217.156,377a1.687,1.687,0,0,0-1.1-1.215l-6.413-2.127-2.127-6.363a1.688,1.688,0,0,0-2.784-.659L2192.8,378.575a1.685,1.685,0,0,0-.422,1.688l.877,2.582-28.69,28.69a5.063,5.063,0,1,0,7.155,7.156l28.69-28.606,2.582.861a2,2,0,0,0,.541.084,1.691,1.691,0,0,0,1.2-.489l11.931-11.949A1.686,1.686,0,0,0,2217.156,377Zm-47.744,39.289a1.695,1.695,0,1,1-2.4-2.4l27.425-27.491.338,1a1.685,1.685,0,0,0,1.063,1.063l1,.338Zm33.669-28.91-5.367-1.788-1.789-5.367,9.266-9.266,1.519,4.574a1.688,1.688,0,0,0,1.063,1.064l4.574,1.519Z" transform="translate(-2115.896 -366.156)" fill="#ed6725"/>
  <path id="Path_1012" data-name="Path 1012" d="M2126.842,547.082a1.688,1.688,0,1,0-.81-3.274,13.5,13.5,0,1,0,16.353,16.353,1.711,1.711,0,0,0-3.324-.81,10.126,10.126,0,1,1-12.269-12.269Z" transform="translate(-2078.676 -506.259)" fill="#303b71"/>
  <path id="Path_1013" data-name="Path 1013" d="M2092.469,490.759a1.684,1.684,0,0,0,1.132-3.173,25.315,25.315,0,1,0,15.341,15.392,1.687,1.687,0,0,0-3.173,1.147,21.94,21.94,0,1,1-13.3-13.316Z" transform="translate(-2034.482 -460.789)" fill="#0f6f14"/>
  <path id="Path_1014" data-name="Path 1014" d="M1983.49,431.442v-1.958a5.89,5.89,0,0,0-1.688-11.543,2.531,2.531,0,1,1,2.532-2.531,1.688,1.688,0,0,0,3.375,0,5.907,5.907,0,0,0-4.219-5.638v-1.957a1.688,1.688,0,1,0-3.375,0v1.957a5.89,5.89,0,0,0,1.688,11.544,2.532,2.532,0,1,1-2.531,2.531,1.688,1.688,0,1,0-3.375,0,5.908,5.908,0,0,0,4.219,5.637v1.958a1.688,1.688,0,1,0,3.375,0Z" transform="translate(-1968.301 -397.69)" fill="#ed6725"/>
  <path id="Path_1015" data-name="Path 1015" d="M2071.013,448.835a1.688,1.688,0,0,0-.691,2.3,33.754,33.754,0,1,1-13.637-13.637,1.708,1.708,0,0,0,1.688-2.971,37.231,37.231,0,1,0,14.986,15,1.689,1.689,0,0,0-2.346-.692Z" transform="translate(-1990.005 -416.536)" fill="#0f6f14"/>
  <path id="Path_1016" data-name="Path 1016" d="M2034.584,760.686a1.687,1.687,0,0,0-2.312.607l-5.806,10.126a1.694,1.694,0,0,1-3.1-.405,1.768,1.768,0,0,1,.168-1.282l5.992-10.362a1.688,1.688,0,1,0-2.92-1.688l-5.991,10.312a5.062,5.062,0,0,0,1.857,6.919,5.169,5.169,0,0,0,2.531.676,5.027,5.027,0,0,0,4.388-2.531l5.805-10.126A1.687,1.687,0,0,0,2034.584,760.686Z" transform="translate(-2003.059 -674.33)" fill="#ed6725"/>
  <path id="Path_1017" data-name="Path 1017" d="M2275.357,757.44a1.688,1.688,0,1,0-2.919,1.688l5.991,10.362a1.694,1.694,0,1,1-2.937,1.688l-5.805-10.126a1.67,1.67,0,1,0-2.852,1.738l5.806,10.126a5.066,5.066,0,0,0,8.776-5.063Z" transform="translate(-2197.64 -674.139)" fill="#ed6725"/>
  <path id="Path_1018" data-name="Path 1018" d="M1949.272,406.678h-5.907V377.16l10.126-7.223,10.126,7.223v5.89a1.688,1.688,0,0,0,3.375,0V376.3a1.686,1.686,0,0,0-.709-1.367l-11.814-8.438a1.685,1.685,0,0,0-1.958,0l-11.814,8.438a1.685,1.685,0,0,0-.709,1.367v32.066a1.688,1.688,0,0,0,1.688,1.688h7.595a1.688,1.688,0,0,0,0-3.375Z" transform="translate(-1939.99 -366.176)" fill="#ed6725"/>
</svg>
