<svg xmlns="http://www.w3.org/2000/svg" viewBox="0 0 18 18"><circle cx="9" cy="9" r="9" style="fill:#55acee"/><path d="M14.512,6.468a4.276,4.276,0,0,1-1.235.339,2.161,2.161,0,0,0,.945-1.192,4.3,4.3,0,0,1-1.365.521A2.153,2.153,0,0,0,9.191,8.1,6.1,6.1,0,0,1,4.757,5.854a2.153,2.153,0,0,0,.665,2.872,2.143,2.143,0,0,1-.973-.27v.027a2.153,2.153,0,0,0,1.724,2.1,2.157,2.157,0,0,1-.972.037,2.153,2.153,0,0,0,2.019,1.5,4.345,4.345,0,0,1-3.193.89,6.121,6.121,0,0,0,9.417-5.158V7.578a4.355,4.355,0,0,0,1.073-1.114Z" style="fill:#f1f2f2"/></svg>