<svg xmlns="http://www.w3.org/2000/svg" viewBox="0 0 153 153"><circle cx="76.5" cy="76.5" r="76.5" style="fill:#f8f6f5"/><rect x="83.93" y="35.89" width="20.88" height="28.42" style="fill:#ffcb78"/><path d="M35.53,54.59h72.12a5.7,5.7,0,0,1,5.7,5.7V66H35.53a5.69,5.69,0,0,1,0-11.38Z" style="fill:#43b649"/><path d="M96.27,50.8a5.7,5.7,0,0,1-5.7-5.7V43.21H75.39V45.1a5.7,5.7,0,0,1-5.69,5.7H67.8V92.55h1.9a5.7,5.7,0,0,1,5.69,5.7v1.9H90.57v-1.9a5.7,5.7,0,0,1,5.7-5.7h1.89V50.8Z" style="fill:#ffcb78"/><path d="M39.33,20.43V92.55H84.88V20.43Z" style="fill:#ffcb78"/><path d="M75.39,35.61a5.7,5.7,0,0,1-5.7-5.69V28H54.51v1.9a5.69,5.69,0,0,1-5.69,5.69h-1.9V77.37h1.9a5.69,5.69,0,0,1,5.69,5.69V85H69.69v-1.9a5.7,5.7,0,0,1,5.7-5.69h1.9V35.61Z" style="fill:#ffcb78"/><path d="M69.7,58.39a7.59,7.59,0,1,1-7.59-7.59h0A7.59,7.59,0,0,1,69.7,58.39Z" style="fill:#f7f8f8"/><path d="M119,66H35.53a5.7,5.7,0,0,1-5.7-5.69v64.53a5.69,5.69,0,0,0,5.69,5.69H119a5.69,5.69,0,0,0,5.69-5.69h0V71.67A5.68,5.68,0,0,0,119,66Z" style="fill:#43b649"/><path d="M29.84,77.37h94.89v41.75H29.84Z" style="fill:#ffcb78"/><path d="M105.76,86.86h22.77a11.39,11.39,0,0,1,0,22.78H105.76a11.39,11.39,0,1,1,0-22.78Z" style="fill:#43b649"/><path d="M109.55,98.25a3.8,3.8,0,1,1-3.79-3.8h0A3.8,3.8,0,0,1,109.55,98.25Z" style="fill:#f7f8f8"/><path d="M79.18,107.74A22.78,22.78,0,1,1,56.41,85a22.76,22.76,0,0,1,22.77,22.78Z" style="fill:#f7f8f8"/><path d="M128.53,85h-1.9V71.67A7.59,7.59,0,0,0,119,64.08h-3.79V58.39a1.9,1.9,0,0,0-3.8,0v5.69H35.53a3.79,3.79,0,0,1-3.79-3.79,1.9,1.9,0,0,0-3.8,0v64.53a7.59,7.59,0,0,0,7.59,7.59H119a7.59,7.59,0,0,0,7.59-7.59V111.53h1.9A13.29,13.29,0,0,0,128.78,85Zm-93-17.08H119a3.8,3.8,0,0,1,3.8,3.79v3.8H31.74V66.85a7.54,7.54,0,0,0,3.79,1Zm87.31,49.34H83.7a1.9,1.9,0,0,0,0,3.8h39.14v3.79a3.8,3.8,0,0,1-3.8,3.8H69.5a24.65,24.65,0,1,0-26.19,0H35.53a3.8,3.8,0,0,1-3.79-3.8V79.27h91.1V85H105.75a13.29,13.29,0,0,0,0,26.57h17.09ZM56.41,128.61a20.88,20.88,0,1,1,20.87-20.88,20.88,20.88,0,0,1-20.87,20.88Zm72.12-20.88H105.75a9.49,9.49,0,0,1,0-19h22.78a9.49,9.49,0,0,1,0,19Z" style="fill:#0f6f14"/><path d="M105.76,92.55a5.7,5.7,0,1,0,5.69,5.7h0A5.7,5.7,0,0,0,105.76,92.55Zm0,7.59a1.9,1.9,0,1,1,1.89-1.89h0A1.89,1.89,0,0,1,105.76,100.14Z" style="fill:#0f6f14"/><path d="M56.41,100.14A2.86,2.86,0,0,1,59.26,103h0a1.9,1.9,0,1,0,3.79,0v0a6.65,6.65,0,0,0-4.74-6.34v-2.2a1.9,1.9,0,1,0-3.8,0v2.2a6.62,6.62,0,0,0,1.9,13,2.85,2.85,0,1,1-2.85,2.85,1.9,1.9,0,1,0-3.8,0,6.66,6.66,0,0,0,4.75,6.34V121a1.9,1.9,0,0,0,3.8,0v-2.2a6.63,6.63,0,0,0-1.9-13,2.85,2.85,0,0,1,0-5.69Z" style="fill:#303b71"/><path d="M39.33,60.28a1.9,1.9,0,0,0,1.89-1.9V22.33H83V58.39a1.9,1.9,0,0,0,3.79,0V45.11h1.9a7.59,7.59,0,0,0,7.59,7.59v5.69a1.9,1.9,0,0,0,3.8,0V50.8a1.9,1.9,0,0,0-1.9-1.9h-1.9a3.79,3.79,0,0,1-3.79-3.79v-1.9a1.9,1.9,0,0,0-1.9-1.9h-3.8V37.52h17.09V58.39a1.9,1.9,0,1,0,3.8,0V35.61a1.9,1.9,0,0,0-1.9-1.89h-19V20.43a1.9,1.9,0,0,0-1.9-1.9H39.33a1.9,1.9,0,0,0-1.9,1.9h0v38A1.9,1.9,0,0,0,39.33,60.28Z" style="fill:#ed6725"/><path d="M77.29,60.29a1.9,1.9,0,0,0,1.89-1.9h0V35.61a1.89,1.89,0,0,0-1.89-1.89H75.38a3.8,3.8,0,0,1-3.79-3.8V28a1.9,1.9,0,0,0-1.9-1.9H54.51a1.9,1.9,0,0,0-1.9,1.9v1.9a3.8,3.8,0,0,1-3.79,3.8h-1.9A1.9,1.9,0,0,0,45,35.61V58.39a1.9,1.9,0,0,0,3.8,0V37.51a7.59,7.59,0,0,0,7.59-7.59H67.8a7.59,7.59,0,0,0,7.59,7.59V58.39a1.9,1.9,0,0,0,1.9,1.9Z" style="fill:#ed6725"/><path d="M62.1,48.9a9.49,9.49,0,0,0-9.49,9.49,1.9,1.9,0,1,0,3.8,0,5.7,5.7,0,0,1,11.39,0,1.9,1.9,0,0,0,3.79,0h0A9.49,9.49,0,0,0,62.1,48.9Z" style="fill:#ed6725"/></svg>