<svg xmlns="http://www.w3.org/2000/svg" viewBox="0 0 20 20"><rect x="9.823" y="3.049" width="3.663" height="4.991" style="fill:#ffcb78"/><path d="M1.332,6.333H13.985a1,1,0,0,1,1,1v1H1.332a1,1,0,0,1,0-2Z" style="fill:#43b649"/><path d="M11.988,5.667a1,1,0,0,1-1-1V4.334H8.325v.333a1,1,0,0,1-1,1H6.993V13h.333a1,1,0,0,1,1,1v.333h2.664V14a1,1,0,0,1,1-1h.333V5.667Z" style="fill:#ffcb78"/><path d="M2,.333V13H9.99V.333Z" style="fill:#ffcb78"/><path d="M8.325,3a1,1,0,0,1-1-1V1.667H4.662V2a1,1,0,0,1-1,1H3.33v7.333h.333a1,1,0,0,1,1,1v.334H7.325v-.334a1,1,0,0,1,1-1h.333V3Z" style="fill:#ffcb78"/><path d="M7.327,7A1.332,1.332,0,1,1,6,5.667H6A1.332,1.332,0,0,1,7.327,7Z" style="fill:#f7f8f8"/><path d="M15.983,8.333H1.331a1,1,0,0,1-1-1h0V18.667a1,1,0,0,0,1,1H15.983a1,1,0,0,0,1-1h0V9.333a1,1,0,0,0-1-1Z" style="fill:#43b649"/><path d="M.333,10.333H16.982v7.333H.333Z" style="fill:#ffcb78"/><path d="M13.652,12h4a2,2,0,0,1,0,4h-4a2,2,0,0,1,0-4Z" style="fill:#43b649"/><path d="M14.318,14a.666.666,0,1,1-.666-.667h0a.667.667,0,0,1,.666.667Z" style="fill:#f7f8f8"/><path d="M8.99,15.667a4,4,0,1,1-4-4,4,4,0,0,1,4,4Z" style="fill:#f7f8f8"/><path d="M17.648,11.667h-.333V9.333A1.333,1.333,0,0,0,15.983,8h-.666V7a.333.333,0,0,0-.666,0h0V8H1.332a.666.666,0,0,1-.666-.666h0A.333.333,0,0,0,0,7.322V18.667A1.332,1.332,0,0,0,1.332,20H15.983a1.332,1.332,0,0,0,1.332-1.333V16.333h.333a2.333,2.333,0,1,0,.043-4.666h-.043Zm-16.316-3H15.983a.667.667,0,0,1,.666.667h0V10H.666V8.486a1.334,1.334,0,0,0,.666.181Zm15.317,8.666H9.783a.334.334,0,0,0,0,.667h6.866v.667a.666.666,0,0,1-.666.666H7.292a4.326,4.326,0,1,0-4.594,0H1.333a.665.665,0,0,1-.666-.666h0v-8H16.649v1h-3a2.333,2.333,0,0,0,0,4.666h3Zm-13.886,1.4a3.887,3.887,0,1,1,5.415-.952,3.887,3.887,0,0,1-5.415.952h0Zm14.885-3.066h-4a1.667,1.667,0,0,1,0-3.334h4a1.667,1.667,0,0,1,0,3.334Z" style="fill:#0f6f14"/><path d="M13.652,13a1,1,0,1,0,1,1h0A1,1,0,0,0,13.652,13Zm0,1.333A.334.334,0,1,1,13.985,14h0A.333.333,0,0,1,13.652,14.333Z" style="fill:#0f6f14"/><path d="M5,14.333a.5.5,0,0,1,.5.5h0a.333.333,0,1,0,.665.014v-.014a1.165,1.165,0,0,0-.832-1.113v-.387a.333.333,0,0,0-.666-.011v.4A1.164,1.164,0,0,0,5,16a.5.5,0,1,1-.5.5h0a.333.333,0,1,0-.665-.011V16.5a1.165,1.165,0,0,0,.832,1.113V18a.333.333,0,1,0,.666.012v-.4A1.164,1.164,0,0,0,5,15.332a.5.5,0,0,1,0-1Z" style="fill:#303b71"/><path d="M2,7.333A.334.334,0,0,0,2.331,7V.667H9.656V7a.333.333,0,0,0,.666,0V4.668h.333A1.333,1.333,0,0,0,11.987,6V7a.333.333,0,1,0,.666.011V5.668a.334.334,0,0,0-.333-.334h-.333a.666.666,0,0,1-.666-.666V4.334A.333.333,0,0,0,10.989,4h-.667V3.334h3V7a.333.333,0,0,0,.666,0V3a.333.333,0,0,0-.333-.333h-3.33V.333A.333.333,0,0,0,9.99,0H2a.333.333,0,0,0-.333.333V7A.334.334,0,0,0,2,7.333Z" style="fill:#ed6725"/><path d="M8.658,7.333A.332.332,0,0,0,8.99,7V3a.333.333,0,0,0-.333-.333H8.323A.667.667,0,0,1,7.658,2V1.667a.333.333,0,0,0-.332-.333H4.662a.333.333,0,0,0-.333.333h0V2a.667.667,0,0,1-.666.667H3.33A.333.333,0,0,0,3,3V7a.333.333,0,1,0,.666,0V3.333A1.332,1.332,0,0,0,5,2h2A1.332,1.332,0,0,0,8.325,3.333h0V7a.333.333,0,0,0,.333.333Z" style="fill:#ed6725"/><path d="M5.994,5.333A1.667,1.667,0,0,0,4.329,7,.333.333,0,1,0,5,7.011V7a1,1,0,0,1,2,0,.333.333,0,1,0,.665,0V7A1.665,1.665,0,0,0,5.994,5.333Z" style="fill:#ed6725"/></svg>